<svg width="32" height="33" fill="none" xmlns="http://www.w3.org/2000/svg"><ellipse cx="21.2042" cy="11.3299" rx="1.0873" ry="1.08512" fill="#fff"/><ellipse cx="10.3311" cy="11.3299" rx="1.08731" ry="1.08512" fill="#fff"/><ellipse cx="10.3311" cy="24.3512" rx="1.08731" ry="1.08512" fill="#fff"/><ellipse cx="15.7677" cy="26.5215" rx="1.0873" ry="1.08512" fill="#fff"/><ellipse cx="7.06924" cy="17.7748" rx="1.08731" ry="1.08512" fill="#fff"/><ellipse cx="24.4661" cy="17.7748" rx="1.0873" ry="1.08512" fill="#fff"/><ellipse cx="21.2042" cy="24.3512" rx="1.0873" ry="1.08512" fill="#fff"/><mask id="a" fill="#fff"><path fill-rule="evenodd" clip-rule="evenodd" d="M20.9215 29.0581c.4083-.1959.9011-.1283 1.217.1961l1.8259 1.875c.2675.2747.709.2747.9766 0 .2577-.2647.2577-.6865 0-.9511l-1.3567-1.3932c-.4259-.4374-.3615-1.1493.0977-1.5516C26.3238 24.9195 28 21.4688 28 17.6145 28 10.6477 22.5235 5 15.7678 5 9.01218 5 3.53564 10.6477 3.53564 17.6145c0 3.8143 1.64165 7.2332 4.23602 9.5463.45272.4036.51323 1.11.09007 1.5446l-1.43416 1.4727c-.25772.2646-.25773.6864-.00001.951.26757.2748.70908.2748.97665.0001l1.87963-1.9302c.31861-.3272.81656-.3929 1.22636-.1914 1.5928.7831 3.3756 1.2214 5.2576 1.2214 1.8412 0 3.5875-.4195 5.1537-1.1709zm-5.1537-.2307c6.005 0 10.8731-5.0202 10.8731-11.2129 0-6.1927-4.8681-11.21289-10.8731-11.21289-6.005 0-10.87302 5.02019-10.87302 11.21289 0 6.1927 4.86802 11.2129 10.87302 11.2129zm-.7595-11.5294V9.94092c0-.4315.3498-.78129.7812-.78129.4315 0 .7813.34979.7813.78129v8.18168c0 .4435-.3595.8031-.8031.8031-.4194 0-.7594-.34-.7594-.7594v-.8683z"/></mask><path fill-rule="evenodd" clip-rule="evenodd" d="M20.9215 29.0581c.4083-.1959.9011-.1283 1.217.1961l1.8259 1.875c.2675.2747.709.2747.9766 0 .2577-.2647.2577-.6865 0-.9511l-1.3567-1.3932c-.4259-.4374-.3615-1.1493.0977-1.5516C26.3238 24.9195 28 21.4688 28 17.6145 28 10.6477 22.5235 5 15.7678 5 9.01218 5 3.53564 10.6477 3.53564 17.6145c0 3.8143 1.64165 7.2332 4.23602 9.5463.45272.4036.51323 1.11.09007 1.5446l-1.43416 1.4727c-.25772.2646-.25773.6864-.00001.951.26757.2748.70908.2748.97665.0001l1.87963-1.9302c.31861-.3272.81656-.3929 1.22636-.1914 1.5928.7831 3.3756 1.2214 5.2576 1.2214 1.8412 0 3.5875-.4195 5.1537-1.1709zm-5.1537-.2307c6.005 0 10.8731-5.0202 10.8731-11.2129 0-6.1927-4.8681-11.21289-10.8731-11.21289-6.005 0-10.87302 5.02019-10.87302 11.21289 0 6.1927 4.86802 11.2129 10.87302 11.2129zm-.7595-11.5294V9.94092c0-.4315.3498-.78129.7812-.78129.4315 0 .7813.34979.7813.78129v8.18168c0 .4435-.3595.8031-.8031.8031-.4194 0-.7594-.34-.7594-.7594v-.8683z" fill="#fff"/><path d="M9.28384 29.199l2.86566 2.7906-2.86566-2.7906zm1.22636-.1914l1.7648-3.5896-1.7648 3.5896zm-3.10599 2.1216l-2.8657-2.7907 2.8657 2.7907zm-.97664-.9511l2.86568 2.7906-2.86568-2.7906zm17.15673-1.3932l-2.8657 2.7907 2.8657-2.7907zm.0977-1.5516l-2.6355-3.009 2.6355 3.009zm-15.91034-.0725l-2.66195 2.9856 2.66195-2.9856zm.09007 1.5446l-2.86568-2.7907 2.86568 2.7907zM24.941 30.1781l2.8657-2.7907-2.8657 2.7907zm-.9766.9511l2.8657-2.7907-2.8657 2.7907zm-1.8259-1.875l-2.8657 2.7907 2.8657-2.7907zm-1.217-.1961l-1.7302-3.6065 1.7302 3.6065zm-1.6487 2.9868l1.8259 1.8749 5.7314-5.5813-1.8259-1.8749-5.7314 5.5813zm8.5339-4.6575L26.45 25.9942l-5.7314 5.5814 1.3567 1.3932 5.7314-5.5814zm-1.4892 2.8549C29.8075 27.1855 32 22.6466 32 17.6145h-8c0 2.6766-1.1599 5.0389-2.9535 6.6098l5.271 6.018zM32 17.6145C32 8.5555 24.8478 1 15.7678 1v8C20.1992 9 24 12.7399 24 17.6145h8zM15.7678 1C6.68789 1-.464355 8.5555-.464355 17.6145H7.53564C7.53564 12.7399 11.3365 9 15.7678 9V1zM-.464355 17.6145c0 4.9798 2.147315 9.4767 5.574065 12.5319l5.32389-5.9712c-1.76198-1.571-2.89796-3.9119-2.89796-6.5607H-.464355zm5.460405 8.3002l-1.43417 1.4727 5.73137 5.5813 1.43415-1.4727-5.73135-5.5813zm5.27385 8.0051l1.8796-1.9302-5.73136-5.5813-1.87963 1.9302 5.73139 5.5813zm-1.52452-1.3226c2.12682 1.0457 4.51192 1.6318 7.02242 1.6318v-8c-1.2535 0-2.4341-.2905-3.4928-.811l-3.52962 7.1792zm7.02242 1.6318c2.4558 0 4.792-.5609 6.8839-1.5645l-3.4604-7.2129c-1.0405.4992-2.1969.7774-3.4235.7774v8zm0-1.4016c8.3293 0 14.8731-6.928 14.8731-15.2129h-8c0 4.1005-3.1924 7.2129-6.8731 7.2129v8zm14.8731-15.2129c0-8.28491-6.5438-15.21289-14.8731-15.21289v7.99999c3.6807 0 6.8731 3.1124 6.8731 7.2129h8zM15.7678 2.40161C7.43851 2.40161.894775 9.32959.894775 17.6145H8.89478c0-4.1005 3.19232-7.2129 6.87302-7.2129V2.40161zM.894775 17.6145c0 8.2849 6.543735 15.2129 14.873025 15.2129v-8c-3.6807 0-6.87302-3.1124-6.87302-7.2129H.894775zM12.5708 17.298v.5426h8v-.5426h-8zm0 .5426v.282h8v-.282h-8zm6.4375.3257v-.3257h-8v.3257h8zm0-.3257v-.5426h-8v.5426h8zm0-.5426v-3.7979h-8v3.7979h8zm0-3.7979V9.94092h-8v3.55918h8zm-6.4375-3.55918v3.55918h8V9.94092h-8zm0 3.55918v3.7979h8v-3.7979h-8zm3.2187-8.34047c-2.6406 0-4.7812 2.14066-4.7812 4.78129h8c0 1.77768-1.4411 3.21868-3.2188 3.21868V5.15963zM12.5708 18.1226c0-1.7656 1.4313-3.1969 3.1969-3.1969v8c2.6527 0 4.8031-2.1504 4.8031-4.8031h-8zm-.4213 13.867c-.9926 1.0194-2.3974 1.1026-3.40412.6076L12.275 25.418c-1.8263-.898-4.22695-.6834-5.85686.9903l5.73136 5.5813zm-8.58765 1.9302c1.83781 1.8872 4.87025 1.8872 6.70805 0l-5.73139-5.5813c1.30267-1.3377 3.4521-1.3377 4.75476 0l-5.73142 5.5813zm.00003-6.5324c-1.77013 1.8177-1.77014 4.7147-.00003 6.5324l5.73142-5.5813c1.25473 1.2884 1.25463 3.3418-.00002 4.6302l-5.73137-5.5813zM26.45 25.9942c1.3427 1.3789.944 3.3052-.1325 4.2481l-5.271-6.018c-1.995 1.7474-2.5225 5.0976-.3279 7.3513l5.7314-5.5814zM15.7895 13.1596c-1.7776 0-3.2187-1.441-3.2187-3.21868h8c0-2.64064-2.1406-4.78129-4.7813-4.78129v7.99997zM5.10971 30.1464c-1.06341-.9481-1.44708-2.8625-.11366-4.2317l5.73135 5.5813c2.1797-2.2383 1.6751-5.5654-.2938-7.3208l-5.32389 5.9712zm22.69699 3.7734c1.7701-1.8177 1.7701-4.7147 0-6.5324l-5.7314 5.5814c-1.2547-1.2885-1.2547-3.3419 0-4.6303l5.7314 5.5813zm-6.708 0c1.8378 1.8872 4.8702 1.8872 6.708 0l-5.7314-5.5813c1.3027-1.3377 3.4521-1.3377 4.7548 0l-5.7314 5.5813zm-5.331-18.9941c1.7897 0 3.2406 1.4508 3.2406 3.2406h-8c0 2.6285 2.1308 4.7594 4.7594 4.7594v-8zm9.2365 11.5379c-1.6161-1.6596-3.9925-1.8853-5.8129-1.012l3.4604 7.2129c-1.0037.4816-2.3947.391-3.3789-.6196l5.7314-5.5813z" fill="#fff" mask="url(#a)"/><path fill="#fff" d="M15 6V2h1.5v4z"/><rect x="8" y="2" width="15.5" height="1.5" rx=".75" fill="#fff"/></svg>