<svg width="29" height="31" fill="none" xmlns="http://www.w3.org/2000/svg"><g clip-path="url(#clip0)" fill="#fff"><path d="M20.7762 18.4731c-1.706 0-3.0885 1.4784-3.0885 3.3011 0 1.8241 1.383 3.3019 3.0885 3.3019 1.7056 0 3.0881-1.4783 3.0881-3.3019 0-1.8232-1.383-3.3011-3.0881-3.3011zm0 5.0133c-.884 0-1.6009-.7663-1.6009-1.7113 0-.946.7169-1.7118 1.6009-1.7118.8841 0 1.6014.7658 1.6014 1.7118 0 .945-.7173 1.7113-1.6014 1.7113zM11.6068-.0101318c-1.76039 0-3.18728 1.5248118-3.18728 3.4070918s1.42644 3.40661 3.18728 3.40661c1.7608 0 3.1873-1.52384 3.1873-3.40661-.0005-1.88276-1.4269-3.4070918-3.1873-3.4070918zM11.6063 5.46573c-1.0689 0-1.93525-.92613-1.93525-2.06925 0-1.14264.86635-2.06925 1.93525-2.06925 1.0694 0 1.9358.92661 1.9358 2.06925 0 1.14312-.8664 2.06925-1.9358 2.06925zM8.22693 17.6105c-1.29367 0-2.3413 1.1198-2.3413 2.5027 0 1.3824 1.04763 2.5028 2.3413 2.5028 1.29367 0 2.34127-1.1204 2.34127-2.5028s-1.0476-2.5027-2.34127-2.5027zM8.00001 19.5c-.45901 0 1.15818 1.1039 1.15818.6132 0-.4897-1.61719.3868-1.15818.3868.45856 0 1.05704-.8774 1.05704-.3877 0 .4906-.59848-.6123-1.05704-.6123zM18.5002 9.76265s3.04-.83845 6.1779 1.49385c.9071.7599 1.7654 1.3364 1.1523 2.1225-.3435.3405-.6371.6568-1.716-.5241-1.054-.76-2.7197-1.8983-5.6142-1.4415-1.1278.2364-1.9616.5507-3.5557 2.1492-1.5936 1.5984-3.9721 2.7251-6.49735 2.4892-2.52526-.2354-3.84884-1.2579-5.24628-2.542-.29407-.4195-.29407-.8651-.12279-1.1272.17128-.262.83329-.5241 1.20123-.1312.36794.3933 2.10839 1.9656 3.82438 2.0702 1.71643.1046 3.43291.2097 5.73701-1.9656 2.306-2.1739 3.4583-2.3313 4.6595-2.59335z"/><mask id="a"><path d="M28.6457 26.8156V8.15743c0-.57834-.3739-.65003-.5239-.65535h-.5056c-.4935 0-.5365.55654-.5379.73867V8.30129c.0014 3.60861.0091 18.25321-.0018 18.53991-.0123.328-.0734 1.1664-.8211 1.8872-.8084.695-1.6176.603-1.6176.603s-20.17724 0-20.65529-.0266c-.37972-.0654-1.04173-.2098-1.60587-1.009-.56369-.7992-.45313-1.8474-.45313-1.8474V8.31486c0-.83846-.67425-.8123-.67425-.8123H.942042c-.536047 0-.585438.58803-.588156.77645V26.816c0 1.3369.453578 2.3977 1.547874 3.3369 1.09384.9387 2.37483.8564 2.37483.8564s19.72361 0 20.58181-.0024c.8583-.0025 1.9856-.4166 2.9159-1.5554.9294-1.1387.8714-2.6359.8714-2.6359z"/></mask><path d="M28.6457 26.8156V8.15743c0-.57834-.3739-.65003-.5239-.65535h-.5056c-.4935 0-.5365.55654-.5379.73867V8.30129c.0014 3.60861.0091 18.25321-.0018 18.53991-.0123.328-.0734 1.1664-.8211 1.8872-.8084.695-1.6176.603-1.6176.603s-20.17724 0-20.65529-.0266c-.37972-.0654-1.04173-.2098-1.60587-1.009-.56369-.7992-.45313-1.8474-.45313-1.8474V8.31486c0-.83846-.67425-.8123-.67425-.8123H.942042c-.536047 0-.585438.58803-.588156.77645V26.816c0 1.3369.453578 2.3977 1.547874 3.3369 1.09384.9387 2.37483.8564 2.37483.8564s19.72361 0 20.58181-.0024c.8583-.0025 1.9856-.4166 2.9159-1.5554.9294-1.1387.8714-2.6359.8714-2.6359z"/><path d="M28.6457 26.8156H8.64565v.3872l.01499.387 19.98506-.7742zm-.5239-19.31352l.7101-19.98738-.3549-.0126h-.3552V7.50208zm-1.0435.73867L7.07885 8.09147l-.00056.07464v.07464H27.0783zm0 .06054H7.07829v.00754l20.00001-.00754zm-.0018 18.53991l-19.98566-.7579-.00045.0123 19.98611.7456zm-.8211 1.8872l13.0395 15.1648.4315-.371.4097-.395-13.8807-14.3988zm-1.6176.603l2.2598-19.87191-1.1263-.12809h-1.1335v20zm-20.65529-.0266L.58831 49.0146l1.13323.1952 1.14814.064 1.11283-19.969zm-1.60587-1.009L-13.9672 39.8231l.0043.0062L2.37664 28.2958zm-.45313-1.8474l19.88969 2.098.1103-1.0461v-1.0519H1.92351zM1.24926 7.50256V27.5026h.38779l.38749-.0151-.77528-19.98494zm-.895374.77645L-19.644 7.99046l-.0021.14427v.14428H.353886zM1.90176 30.1529L-11.1239 45.3296l.0007.0006L1.90176 30.1529zm2.37483.8564v-20h-.64216l-.64084.0412 1.283 19.9588zm23.49771-1.5578l15.4888 12.653.006-.0074-15.4948-12.6456zm20.8714-2.6359V8.15743H8.64565V26.8156H48.6457zm0-18.65817c0-4.9701-1.8584-11.41945-7.6177-16.08418-4.8897-3.96045-10.0293-4.48155-12.1961-4.55855l-1.4201 39.9748c-2.0168-.0717-6.8945-.5543-11.5598-4.333-5.5349-4.483-7.20635-10.6073-7.20635-14.99907H48.6457zM28.1218-12.4979h-.5056v40h.5056v-40zm-.5056 0c-4.1563 0-8.5237 1.2668-12.2831 4.08303-3.511 2.63017-5.41712 5.79945-6.41907 8.033453C7.11649 3.62647 7.08568 7.17652 7.07885 8.09147l39.99885.29855c-.0054.73283-.014 3.91358-1.6664 7.59758-.9293 2.0721-2.7321 5.0909-6.0962 7.611-3.6125 2.7062-7.7895 3.9035-11.6989 3.9035v-40zM7.07829 8.24075V8.29161H47.0783V8.2915v-.0001-.00011-.0001-.00011-.0001-.00011-.0001-.00011-.0001-.0001-.00011-.0001-.00011-.0001-.00011-.0001-.0001-.00011-.0001-.0001-.00011-.0001-.00011-.0001-.0001-.00011-.0001-.0001-.00011-.0001-.0001-.0001-.00011-.0001-.0001-.00011-.0001-.0001-.0001-.00011-.0001-.0001-.0001-.00011-.0001-.0001-.0001-.0001-.00011-.0001-.0001-.0001-.0001-.00011-.0001-.0001-.0001-.0001-.0001-.00011-.0001-.0001-.0001-.0001-.0001-.0001-.0001-.00011-.0001-.0001-.0001-.0001-.0001-.0001-.0001-.0001-.0001-.0001-.0001-.0001-.0001-.00011-.0001-.0001-.0001-.0001-.0001-.0001-.0001-.0001-.0001-.0001-.0001-.0001-.0001-.0001-.0001-.0001-.0001-.00009-.0001-.0001-.0001-.0001-.0001-.0001-.0001-.0001-.0001-.0001-.0001-.0001V8.28v-.0001-.00009-.0001-.0001-.0001-.0001-.0001-.0001-.0001-.0001-.00009-.0001-.0001-.0001-.0001-.0001-.0001-.00009-.0001-.0001-.0001-.0001-.0001-.0001-.00009-.0001-.0001-.0001-.0001-.00009-.0001-.0001-.0001-.0001-.00009-.0001-.0001-.0001-.0001-.00009-.0001-.0001-.0001-.0001-.00009-.0001-.0001-.0001-.00009-.0001-.0001-.0001-.00009-.0001-.0001-.0001-.00009-.0001-.0001-.0001-.00009-.0001-.0001-.0001-.00009-.0001-.0001-.00009-.0001-.0001-.0001-.00009-.0001-.0001-.00009-.0001-.0001-.0001-.00009-.0001-.0001-.00009-.0001-.0001-.00009-.0001-.0001-.0001-.00009-.0001-.0001-.00009-.0001-.0001-.00009-.0001-.0001-.00009-.0001-.0001-.00009-.0001-.0001-.00009-.0001-.0001-.00009-.0001-.0001-.00009-.0001-.0001-.00009-.0001-.0001-.00009-.0001-.0001-.00009-.0001-.0001-.00009-.0001-.0001-.00009-.0001-.0001-.00009-.0001-.0001-.00009-.0001-.00009-.0001-.0001-.00009-.0001-.0001-.00009-.0001-.0001-.00009-.0001-.0001-.00009-.0001-.0001-.00009-.0001-.0001-.00009-.0001-.00009-.0001-.0001-.00009-.0001-.0001-.00009-.0001-.0001-.00009-.0001-.0001-.00009-.0001-.0001-.00009-.0001-.0001-.00009-.0001-.0001-.00009-.0001-.0001-.00009-.0001-.0001-.00009-.0001-.0001-.00009-.0001-.0001-.00009-.0001-.0001-.00009-.0001-.0001-.00009-.0001-.0001-.00009-.0001-.0001-.00009-.0001-.0001-.0001-.00009-.0001-.0001-.00009-.0001-.0001-.00009-.0001-.0001-.0001-.00009-.0001-.0001-.00009-.0001-.0001-.0001-.00009-.0001-.0001-.00009-.0001-.0001-.0001-.00009-.0001-.0001-.0001-.00009-.0001-.0001-.0001-.00009-.0001-.0001-.0001-.0001-.00009-.0001-.0001-.0001-.00009-.0001-.0001-.0001-.0001-.00009-.0001-.0001-.0001-.0001-.00009-.0001-.0001-.0001-.0001-.00009-.0001-.0001-.0001-.0001-.0001-.00009-.0001-.0001-.0001-.0001-.0001-.0001-.00009-.0001-.0001-.0001-.0001-.0001-.0001-.0001-.00009-.0001-.0001-.0001-.0001-.0001-.0001-.0001-.0001-.0001-.0001-.00009-.0001-.0001-.0001-.0001-.0001-.0001-.0001-.0001-.0001-.0001-.0001-.0001-.0001-.0001-.0001-.0001-.0001-.0001-.0001-.0001-.0001-.0001-.0001-.0001-.0001-.0001-.0001-.0001-.0001-.0001-.0001-.0001-.00011-.0001-.0001-.0001-.0001-.0001-.0001-.0001-.0001-.0001-.00011-.0001-.0001-.0001-.0001-.0001-.0001-.00011-.0001-.0001-.0001-.0001-.0001-.00011-.0001-.0001-.0001-.0001-.00011-.0001-.0001-.0001-.00011-.0001-.0001-.0001-.00011-.0001-.0001-.0001-.00011-.0001-.0001-.0001-.00011-.0001-.0001-.00011-.0001-.0001-.00011-.0001-.0001-.00011-.0001-.00011-.0001-.0001-.00011-.0001-.0001-.00011-.0001V8.242v-.0001-.00011-.0001-.0001-.00011-.0001-.00011-.0001-.00011-.0001-.00011-.0001H7.07829zm0 .05086V8.30129H47.0783v-.00001-.00001-.00001-.00001-.00001-.00001-.00001-.00001-.00001-.00001-.00001-.00001-.00001-.00001-.00001-.00001-.00001-.00001-.00001-.00001-.00001-.00001-.00001-.00001-.00001-.00001-.00001-.00001V8.301v-.00001-.00001-.00001-.00001-.00001-.00001-.00001-.00001-.00002-.00001-.00001-.00001-.00001-.00001-.00001-.00002-.00001-.00001-.00001-.00002-.00001-.00001-.00001-.00002-.00001-.00001-.00002-.00001-.00002-.00001-.00001-.00002-.00001-.00002-.00001-.00002-.00001-.00002-.00001-.00002-.00001-.00002-.00001-.00002-.00001-.00002-.00002-.00001-.00002-.00001-.00002-.00002-.00001-.00002-.00002-.00001-.00002-.00002-.00002-.00001-.00002-.00002-.00002-.00002-.00001-.00002-.00002-.00002V8.3v-.00002-.00001-.00002-.00002-.00002-.00002-.00002-.00002-.00002-.00002-.00002-.00002-.00002-.00002-.00002-.00002-.00002-.00002-.00002-.00002-.00002-.00002-.00002-.00002-.00002-.00002-.00002-.00002-.00002-.00003-.00002-.00002-.00002-.00002-.00002-.00003-.00002-.00002-.00002-.00002-.00003-.00002-.00002-.00002-.00002-.00003-.00002-.00002-.00002-.00003-.00002-.00002-.00003-.00002-.00002-.00003-.00002-.00002-.00003-.00002-.00002-.00003-.00002-.00002-.00003-.00002-.00003-.00002-.00002-.00003-.00002-.00003-.00002-.00002-.00003-.00002-.00003-.00002-.00003-.00002-.00003-.00002-.00003-.00002-.00003-.00002-.00003-.00002-.00003V8.298v-.00003-.00002-.00003-.00002-.00003-.00002-.00003-.00002-.00003-.00002-.00003-.00002-.00003-.00003-.00002-.00003-.00002-.00003-.00002-.00003-.00003-.00002-.00003-.00002-.00003-.00003-.00002-.00003-.00002-.00003-.00003-.00002-.00003-.00002-.00003-.00003-.00002-.00003V8.297v-.00003-.00003-.00002-.00003-.00003-.00002-.00003-.00003-.00002-.00003-.00002-.00003-.00003-.00002-.00003-.00003-.00002-.00003-.00003-.00002-.00003-.00003-.00002-.00003-.00002-.00003-.00003-.00002-.00003-.00003-.00002-.00003-.00003-.00002-.00003-.00003-.00002-.00003-.00002-.00003-.00003-.00002-.00003-.00003-.00002-.00003-.00003-.00002-.00003-.00002-.00003-.00003-.00002-.00003-.00003-.00002-.00003-.00002-.00003-.00003-.00002-.00003-.00002-.00003-.00003-.00002-.00003-.00002-.00003-.00002-.00003-.00003-.00002-.00003-.00002V8.295v-.00002-.00003-.00003-.00002-.00003-.00002-.00003-.00002-.00003-.00002-.00003-.00002-.00003-.00002-.00003-.00002-.00003-.00002-.00003-.00002-.00003-.00002-.00003-.00002-.00003-.00002-.00002-.00003-.00002-.00003-.00002-.00003-.00002-.00002-.00003-.00002-.00003-.00002-.00002-.00003-.00002-.00002-.00003-.00002-.00002-.00003-.00002-.00002-.00003-.00002-.00002-.00003-.00002-.00002-.00003-.00002-.00002-.00002-.00003-.00002-.00002-.00002-.00002-.00003-.00002-.00002-.00002-.00002-.00003-.00002-.00002-.00002-.00002-.00002-.00002-.00002-.00003-.00002-.00002-.00002-.00002-.00002-.00002-.00002-.00002V8.293v-.00002-.00002-.00002-.00002-.00002-.00002-.00002-.00002-.00002-.00002-.00002-.00002-.00001-.00002-.00002-.00002-.00002-.00002-.00002-.00001-.00002-.00002-.00002-.00002-.00001-.00002-.00002-.00002-.00001-.00002-.00002-.00001-.00002-.00002-.00001-.00002-.00002-.00001-.00002-.00002-.00001-.00002-.00001-.00002-.00001-.00002-.00001-.00002-.00001-.00002-.00001-.00002-.00001-.00002-.00001-.00001-.00002-.00001-.00002-.00001-.00001-.00002-.00001-.00001-.00001-.00002-.00001-.00001-.00001-.00002-.00001-.00001-.00001-.00001-.00001-.00002-.00001-.00001-.00001-.00001-.00001-.00001-.00001-.00001-.00001-.00001-.00001-.00001-.00001-.00001-.00001-.00001-.00001H7.07829zm0 .01722c.00068 1.80797.00295 6.36627.00368 10.51167.00037 2.073.00036 4.0374-.00042 5.4997-.0004.7324-.00098 1.3311-.00178 1.752-.0015.7883-.00559.4505.01108.0111l39.97125 1.5159c.0194-.5111.0174-1.3693.0176-1.4509.0009-.4489.0014-1.0695.0018-1.8068.0008-1.477.0008-3.453.0005-5.5281-.0008-4.1507-.003-8.719-.0037-10.51964l-40.00001.01507zm.0121 17.78677c.05031-1.3487.38379-7.0419 5.28431-11.7661l27.7614 28.7977c6.3959-6.1657 6.8517-13.5358 6.9265-15.5403L7.09039 26.0956zM13.216 13.5635c2.5391-2.1833 5.3548-3.3276 7.8066-3.84383 1.1922-.25103 2.2904-.35418 3.2499-.37839.4833-.01219.9437-.00466 1.3781.01657.2177.01065.4304.02481.6379.04189.1038.00854.2064.01784.3079.02781.0507.00499.1012.01015.1514.01547.0251.00266.0501.00537.0751.00811.0125.00137.0249.00276.0374.00415.0062.0007.0156.00174.0187.00209.0093.00106.0186.00212-2.2412 19.87403-2.2599 19.8719-2.2506 19.873-2.2412 19.874.0031.0004.0125.0014.0187.0021.0125.0014.025.0028.0376.0042.0252.0028.0505.0055.076.0082.051.0054.1027.0107.155.0158.1045.0103.2118.02.3217.0291.2197.0181.4506.0335.692.0453.4818.0236 1.0117.0329 1.5836.0185 1.1365-.0287 2.4875-.1523 3.9831-.4672 3.0585-.644 6.683-2.0898 10.0306-4.9682L13.216 13.5635zm11.4218 15.7679c0-20-.0001-20-.0002-20H24.4119c-.1476-.00001-.3642-.00002-.6402-.00005-.5519-.00005-1.3411-.00015-2.2897-.00036-1.8975-.00042-4.4314-.00125-6.9795-.00291-2.55-.00167-5.10679-.00416-7.05268-.00788-.9751-.00186-1.7837-.00401-2.35718-.00646-1.07104-.00457-.61312-.01231.00271.02201L2.86968 49.2738c.97087.0541 7.16992.0514 11.60672.0543 2.5559.0016 5.0961.0025 6.9968.0029.9505.0002 1.7414.0003 2.2948.0004h.8695c.0002 0 .0003 0 .0003-20zM7.37671 9.59488c.43236.07446 2.52605.42682 4.93779 1.65332 2.5656 1.3047 4.7743 3.2087 6.4016 5.5141l-32.679 23.067c4.99469 7.0759 11.87721 8.7249 14.55121 9.1853l6.7884-39.41972zM18.7205 16.7685c2.3488 3.3303 2.9087 6.5087 3.0797 7.9542.101.8542.1211 1.5949.1129 2.1832-.0043.3032-.0165.5899-.0336.8586-.0086.1351-.0185.2676-.0296.3974-.0055.0649-.0114.1294-.0175.1934-.0031.0321-.0062.064-.0094.0958-.0016.0159-.0032.0318-.0049.0477-.0008.0079-.0016.0159-.0024.0238-.0004.004-.0011.0099-.0013.0119-.0006.0059-.0012.0119-19.89089-2.0861-19.88971-2.098-19.89031-2.092-19.89091-2.086-.0002.0019-.0008.0079-.0013.0119-.0008.008-.0016.016-.0024.0241-.0017.0161-.0034.0324-.005.0488-.0033.0329-.0066.0663-.0099.1003-.0065.0681-.0129.1385-.0191.2114-.0124.1455-.0242.3013-.0347.4666-.0209.3292-.0374.704-.0432 1.1179-.0114.8098.0163 1.8625.1602 3.0787.2566 2.1694 1.0431 6.2715 3.9556 10.401l32.6877-23.0546zm3.203 9.6799V8.31486h-40V26.4484h40zm0-18.13354c0-6.8903-3.4119-14.00404-10.2643-17.99885-2.70903-1.57931-5.24652-2.23411-6.98215-2.52651-.90534-.1525-1.71648-.2273-2.39945-.2614-.34537-.0173-.66885-.0248-.96761-.0256-.14974-.0004-.29432.0009-.43345.0035-.069603.0013-.137955.003-.205023.0049-.033539.001-.06677.002-.099689.0031-.01646.0006-.032844.0012-.049151.0018-.008143.0003-.020341.0007-.024404.0009-.012146.0004-.02429.0009.750987 19.98586.77528 19.98494.76314 19.98544.751 19.98594-.00405.0001-.01623.0006-.02435.0009-.01627.0005-.03259.0011-.04897.0017-.03276.0011-.06574.0021-.09896.0031-.06642.0019-.1338.0035-.20213.0048-.13658.0026-.27737.0038-.42218.0034-.288875-.0008-.597872-.008-.924805-.0243-.646097-.0323-1.404565-.1026-2.246695-.2444-1.6092-.2711-3.97813-.8801-6.51858-2.3611-2.69609-1.5718-5.36509-4.0124-7.23829-7.4338-1.8351-3.3519-2.3518-6.6277-2.3518-9.12394h40zM1.24926-12.4974H.942042v40h.307218v-40zm-.307218 0c-4.037522 0-8.320152 1.1918-12.061342 3.9057-3.5223 2.5551-5.491 5.67394-6.5524 7.945526C-19.5703 3.41727-19.6304 7.0439-19.644 7.99046l39.9958.5771c-.0109.75814-.0449 3.99654-1.7842 7.71884-.9817 2.1011-2.8374 5.0611-6.1996 7.5001-3.58102 2.5977-7.65646 3.7161-11.425958 3.7161v-40zM-19.6461 8.27901V26.816h40v-.007-.0072-.0076-.0079-.0081-.0085-.0087-.009-.0093-.0096-.0098-.0102-.0104-.0107-.0109-.0113-.0115-.0118-.0121-.0123-.0126-.0129-.0131-.0135-.0136-.014-.0142-.0145-.0147-.015-.0153-.0155-.0158-.016-.0163-.0165-.0168-.0171-.0173-.0176-.0178-.018-.0183-.0186-.0188-.019-.0193-.0195-.0198-.02-.0203-.0205-.0207-.021-.0212-.0214-.0217-.0219-.0221-.0224-.0226-.0228-.023-.0233-.0235-.0237-.024-.0241-.0244-.0246-.0249-.025-.0253-.0254-.0257-.0259-.0262-.0263-.0265-.0268-.0269-.0272-.0274-.0276-.0278-.0279-.0282-.0284-.0286-.0288-.029-.0292-.0294-.0296-.0297-.03-.0301-.0304-.0305-.0308-.0309-.0311-.0313-.0314-.0317-.0318-.0321-.0322-.0323-.0326-.0327-.033-.033-.0333-.0334-.0337-.0337-.034-.0341-.0343-.0345-.0346-.0348-.0349-.0351-.0353-.0354-.0356-.0358-.0359-.0361-.0362-.0364-.0365-.0367-.0368-.037-.0372-.0373-.0374-.0376-.0377-.0379-.038-.0381-.0383-.0385-.0386-.0387-.0388-.039-.0391-.0393-.0394-.0395-.0397-.0398-.0399-.04-.0402-.0403-.0404-.0405-.0407-.0408-.0409-.041-.0412-.0412-.0414-.0415-.0416-.0417-.0418-.042-.042-.0422-.0423-.0424-.0424-.0426-.0427-.0428-.0429-.043-.0431-.0432-.0433-.0434-.0435-.0436-.0436-.0438-.0439-.0439-.0441-.0441-.0442-.0443-.0444-.0445-.0445-.0447-.0447-.0448-.0449-.0449-.045-.0452-.0451-.0453-.0453-.0454-.0455-.0455-.0457-.0456-.0458-.0458-.0459-.0459-.046-.0461-.0461-.0462-.0462-.0463-.0464-.0464-.0465-.0465-.0465-.0467-.0466-.0467-.0468-.0468-.0469-.0469-.047-.0469-.0471-.0471-.0471-.0471-.0472-.0472-.0473-.0473-.0473-.0474-.0474-.0474-.0475-.0475-.0475-.0475-.0476-.0476-.0476-.0476-.0476-.0477-.0477-.0477-.0477-.0478-.0477-.0478-.0478-.0478-.0478-.0478-.0478-.0479-.0478-.0479-.0478-.0479-.0478-.0479-.0478-.0479-.0478-.0479-.0478-.0479-.0478-.0478-.0479-.0478-.0478-.0478-.0477-.0478-.0478-.0477-.0477-.0477-.0477-.0477-.0476-.0476-.0476-.0476-.0476-.0475-.0475-.0475-.0474-.0474-.0474-.0474-.0473-.0473-.0472-.0472-.0472-.0471-.0472-.047-.047-.047-.0469-.0469-.0469-.0468-.0467-.0467-.0467-.0466-.0465-.0465-.0465-.0464-.0463-.0463-.0462-.0462-.0461-.046-.046-.0459-.0459-.0457-.0458-.0456-.0456-.0455-.0455-.0453-.0454-.0452-.0451-.0451-.045-.045-.0448-.0448-.0447-.0446-.0445-.0444-.0444-.0443-.0441-.0441-.044-.044-.0438-.0437-.0437-.0435-.0435-.0433-.0433-.0431-.0431-.043-.0428-.0428-.0427-.0425-.0424-.0424-.0422-.0421-.0421-.0419-.0418-.0416-.0416-.0415-.0413-.0412-.0411-.041-.0408-.0408-.0406-.0405-.0404-.0402-.0401-.04-.0399-.0397-.0396-.0395-.0394-.0392-.0391-.0389-.0388-.0387-.0385-.0384-.0382-.0381-.038-.0378-.0377-.0375-.0374-.0372-.0371-.0369-.0368-.0367-.0364-.0364-.0361-.036-.0359-.0357-.0355-.0354-.0352-.0351-.0349-.0347-.0346-.0344-.0342-.0341-.0338-.0338-.0335-.03338-.0332-.03303-.03285-.03267-.0325-.03232-.03213-.03196-.03177-.03159-.03141-.03122-.03103-.03085-.03066-.03047-.03028-.03008-.0299-.0297-.02951-.02931-.02912-.02892-.02872-.02852-.02831-.02812-.02792-.02771-.0275-.0273-.0271-.02688-.02668-.02646-.02626-.02604-.02583-.02562-.0254-.02518-.02497-.02475-.02452-.02431-.02409-.02387-.02364-.02341-.02319-.02297-.02274-.0225-.02228-.02205-.02182-.02158-.02135-.02111-.02088-.02064-.02041h-40zm0 18.53699c0 7.0631 2.9198 13.7052 8.5222 18.5136l26.0514-30.3534c1.2945 1.1111 2.8548 2.871 3.9934 5.3727 1.1361 2.4964 1.433 4.81 1.433 6.4671h-40zm8.5229 18.5142c3.73688 3.2069 7.68581 4.5776 10.479889 5.1692 1.42083.3008 2.679321.4312 3.691051.4825.51239.0259.98044.0325 1.39671.0278.20877-.0023.40635-.0075.59195-.0147.09287-.0036.18293-.0077.2701-.0122.04359-.0023.08648-.0047.12866-.0071.02109-.0012.04201-.0025.06274-.0037.01037-.0007.0207-.0013.03098-.002.00513-.0003.01282-.0008.01539-.0009.00766-.0005.01532-.001-1.26768-19.9598S3.00124 11.05 3.00888 11.0495c.00255-.0002.0102-.0007.0153-.001.0102-.0006.02041-.0012.03063-.0019.02042-.0012.04087-.0024.06134-.0036.04094-.0024.08198-.0047.12311-.0068.08225-.0042.16499-.008.24821-.0112.1663-.0065.33529-.0108.5069-.0128.34194-.0038.70137.0019 1.07658.0209.73736.0373 1.60724.1297 2.57109.3338 1.88013.398 4.64166 1.3405 7.28466 3.6087l-26.0499 30.3546zM4.27659 31.0093c0 20 .00007 20 .00023 20h.84912c.54106 0 1.31494 0 2.24628-.0001 1.86265 0 4.35518-.0001 6.87468-.0002 5.0072-.0003 10.2022-.0009 10.668-.0022l-.1129-39.9999h-.0023c-.0015 0-.0036.0001-.0063.0001h-.0215c-.0181 0-.0416.0001-.0707.0001-.0584.0001-.1349.0001-.2292.0002-.1885.0001-.4419.0002-.7518.0004-.6194.0002-1.4587.0004-2.4432.0006-1.9686.0003-4.5136.0005-7.0325.0007-2.5188.0001-5.01074.0002-6.87309.0002-.93116.0001-1.70489.0001-2.24582.0001H4.27681c-.00015 0-.00022 0-.00022 20zM24.9149 51.0068c7.1039-.0201 13.8006-3.3355 18.3482-8.9023L12.2855 16.7986c2.687-3.2893 7.129-5.7765 12.5165-5.7917l.1129 39.9999zm18.3542-8.9097c3.2454-3.9767 4.4342-8.0956 4.913-10.5289.2584-1.3127.3739-2.4609.4252-3.3541.0261-.4548.0368-.866.0387-1.2258.001-.1805-.0002-.35-.003-.5076-.0014-.0789-.0032-.155-.0053-.2282-.001-.0366-.0021-.0725-.0033-.1077-.0006-.0176-.0012-.035-.0018-.0522-.0003-.0086-.0006-.0172-.001-.0258-.0001-.0042-.0004-.0106-.0005-.0127-.0002-.0064-.0004-.0127-19.9854.7615-19.98506.7742-19.9853.7678-19.98555.7615-.00008-.0021-.00032-.0085-.00047-.0127-.00032-.0084-.00063-.0169-.00094-.0253-.00061-.0169-.0012-.0338-.00176-.0506-.00114-.0338-.00218-.0675-.00314-.1013-.00192-.0674-.00348-.135-.00467-.2026-.00237-.1351-.00329-.2713-.00256-.4087.00145-.2734.00945-.5588.02649-.8554.03313-.5769.10508-1.2796.26174-2.0757.2755-1.4 1.02859-4.2009 3.34456-7.0388l30.9897 25.2911z" mask="url(#a)"/></g><defs><clipPath id="clip0"><path fill="#fff" d="M0 0h29v31H0z"/></clipPath></defs></svg>